<svg id="Layer_1" data-name="Layer 1" xmlns="http://www.w3.org/2000/svg" viewBox="0 0 150 150"><defs><style>.cls-1{fill:#fff3f3;}.cls-2{fill:#ffccca;}.cls-3{fill:#e07b77;}</style></defs><circle class="cls-1" cx="74.52" cy="75.04" r="64.67"/><path class="cls-2" d="M79.87,5.17a70,70,0,1,0,65,74.7A70.08,70.08,0,0,0,79.87,5.17ZM71,132.6A57.74,57.74,0,1,1,132.6,79,57.8,57.8,0,0,1,71,132.6Z"/><path class="cls-3" d="M49.88,138.16q-9.33.81-14.08-1.83t-4.91-9.68c0-1,.56-1.58,1.69-1.68a19.54,19.54,0,0,1,4.21.32c1.89.3,5.49.21,10.8-.25a106.72,106.72,0,0,0,24.81-5,83.62,83.62,0,0,0,19.68-9.38,48.9,48.9,0,0,0,12.94-12,22.34,22.34,0,0,0,4.59-13q0-6-3.6-9.25a21,21,0,0,0-9.49-4.69,55.85,55.85,0,0,0-12.87-1.4q-7,0-13.7.59-2.91.26-5.82.58c-1.94.23-3.78.41-5.52.56Q55.25,83.94,52,96.62t-6.74,24.94a12.32,12.32,0,0,1-8-1.75A6.5,6.5,0,0,1,34,114.13a16.55,16.55,0,0,1,.53-3.65c.36-1.51.9-3.31,1.61-5.42s1.66-5.3,3.14-9.92,3.24-10.09,5.28-16.39,4.32-13,6.82-20,5.1-13.9,7.81-20.67,5.38-12.87,8-18.31a55.63,55.63,0,0,0-10.11,4.1c-2.65,1.45-4.74,2.71-6.28,3.76a8.57,8.57,0,0,1-3.52,1.69,4.11,4.11,0,0,1-2.37-.87,12.9,12.9,0,0,1-2.61-2.22,3.69,3.69,0,0,1-1.14-2.35q8.27-4.1,17.15-7.47A80.28,80.28,0,0,1,79.75,12a96.92,96.92,0,0,1,12.1-.22A45.3,45.3,0,0,1,104.4,14a21.62,21.62,0,0,1,9.88,6.64q3.9,4.63,3.91,12.91a23.52,23.52,0,0,1-2.84,11.66,30.89,30.89,0,0,1-7.58,8.93,52.39,52.39,0,0,1-10.41,6.58A100.11,100.11,0,0,1,86.18,65.3,58.87,58.87,0,0,1,102,67.82a30.52,30.52,0,0,1,10.11,5.32,19.66,19.66,0,0,1,5.36,6.8,17.5,17.5,0,0,1,1.61,7.14,30.93,30.93,0,0,1-4.75,16.65,53.09,53.09,0,0,1-12.48,13.65,91.83,91.83,0,0,1-17,10.44,120.18,120.18,0,0,1-18.46,7.05A88.57,88.57,0,0,1,49.88,138.16ZM60.15,66.05A106,106,0,0,0,77,62.58,66.08,66.08,0,0,0,91.92,56.3a33.26,33.26,0,0,0,10.65-9.51,22.69,22.69,0,0,0,4-13.44q0-7.35-4-11a19.29,19.29,0,0,0-10.42-4.6,58,58,0,0,0-13.78-.33l-.31,0-.3,0a208.51,208.51,0,0,0-9.5,23.12Q64,53,60.15,66.05Z"/></svg>