<svg xmlns="http://www.w3.org/2000/svg" viewBox="0 0 1287.15 550.95"><g fill="#e07b77"><path d="M427.6 542.18c-10.57.93-18.55-.11-23.92-3.11-5.38-3-8.15-8.48-8.32-16.43 0-1.73.95-2.68 2.86-2.85 1.56-.14 3.94.04 7.15.54 3.21.5 9.31.35 18.33-.43 15.25-1.33 29.29-4.16 42.12-8.5 12.83-4.33 23.96-9.64 33.41-15.92 9.45-6.29 16.77-13.08 21.97-20.38 5.2-7.3 7.8-14.68 7.8-22.13 0-6.76-2.04-12-6.11-15.71-4.08-3.71-9.45-6.36-16.12-7.95-6.67-1.58-13.95-2.38-21.84-2.38-7.89 0-15.65.33-23.27 1-3.29.29-6.59.62-9.88.99-3.29.38-6.42.69-9.36.95-3.81 13.51-7.54 27.44-11.18 41.8a1406 1406 0 01-11.44 42.34c-5.2.46-9.71-.54-13.52-2.98-3.81-2.44-5.72-5.65-5.72-9.64 0-1.56.3-3.62.91-6.19.61-2.56 1.52-5.63 2.73-9.21 1.04-3.38 2.81-9 5.33-16.85 2.51-7.84 5.5-17.12 8.97-27.82 3.47-10.7 7.32-22 11.57-33.9 4.24-11.9 8.67-23.59 13.26-35.09 4.59-11.49 9.14-21.86 13.65-31.09-6.94 2.17-12.65 4.49-17.16 6.96-4.51 2.47-8.06 4.6-10.66 6.39-2.6 1.79-4.59 2.74-5.98 2.86-1.04.09-2.38-.4-4.03-1.47a22.212 22.212 0 01-4.42-3.77c-1.3-1.45-1.95-2.77-1.95-3.99a332.18 332.18 0 0129.12-12.69c10.05-3.82 22.19-6.36 36.4-7.6 6.24-.55 13.09-.67 20.54-.37 7.45.3 14.56 1.59 21.32 3.85 6.76 2.27 12.35 6.03 16.77 11.27 4.42 5.25 6.63 12.55 6.63 21.91 0 7.46-1.6 14.05-4.81 19.79-3.21 5.74-7.5 10.8-12.87 15.17-5.37 4.37-11.27 8.09-17.68 11.17s-12.74 5.66-18.98 7.77c10.75.45 19.72 1.87 26.91 4.28 7.19 2.41 12.91 5.42 17.16 9.03 4.25 3.62 7.28 7.47 9.1 11.55 1.82 4.09 2.73 8.12 2.73 12.11 0 10.23-2.69 19.65-8.06 28.27-5.37 8.62-12.44 16.34-21.19 23.17-8.75 6.83-18.37 12.74-28.86 17.74-10.49 4.99-20.93 8.98-31.33 11.97-10.4 2.99-19.76 4.85-28.08 5.57zm17.42-122.42c9.71-1.19 19.24-3.15 28.6-5.88 9.36-2.72 17.81-6.28 25.35-10.67 7.54-4.38 13.56-9.77 18.07-16.14 4.51-6.38 6.76-13.98 6.76-22.82 0-8.32-2.25-14.53-6.76-18.65-4.51-4.11-10.4-6.72-17.68-7.81-7.28-1.09-15.08-1.28-23.4-.55-.17.02-.35.03-.52.04-.17.02-.35.03-.52.05-5.89 12.13-11.27 25.21-16.12 39.24a955.17 955.17 0 00-13.78 43.19zM573.46 514.6c-5.89.52-10.7-1.79-14.43-6.93-3.73-5.13-5.59-11.25-5.59-18.36 0-4.85.78-10.64 2.34-17.37 1.56-6.72 3.6-13.31 6.11-19.77 2.51-6.46 5.11-11.89 7.8-16.28 2.69-4.4 5.16-6.69 7.41-6.89 1.21-.11 3.08.38 5.59 1.46s4.72 2.49 6.63 4.23c-1.91 2.94-4.2 7.39-6.89 13.34-2.69 5.96-5.07 12.32-7.15 19.09s-3.12 12.84-3.12 18.21c0 .69.13 2.33.39 4.91s.91 4.95 1.95 7.11 2.86 3.13 5.46 2.9c2.95-.26 6.11-2.14 9.49-5.64 3.38-3.5 6.84-7.96 10.4-13.39 3.55-5.42 7.02-11.23 10.4-17.42 3.38-6.19 6.41-12.17 9.1-17.96 2.69-5.78 4.9-10.65 6.63-14.62 1.56.04 3.6.29 6.11.77 2.51.47 4.72 1.19 6.63 2.15 1.91.96 2.86 2.48 2.86 4.56 0 .52-.82 2.72-2.47 6.59-1.65 3.87-3.55 8.5-5.72 13.89-2.17 5.39-4.07 10.89-5.72 16.49-1.65 5.6-2.47 10.49-2.47 14.65 0 2.43.48 4.51 1.43 6.25.95 1.74 2.81 2.48 5.59 2.24 3.64-.32 7.97-2.34 13-6.08 5.03-3.73 10.23-8.96 15.6-15.66 5.37-6.71 10.14-14.58 14.3-23.61l3.9 2.78c-3.81 9.69-8.75 18.54-14.82 26.52-6.07 7.99-12.57 14.4-19.5 19.26-6.93 4.85-13.69 7.57-20.28 8.14-5.03.44-8.8-.4-11.31-2.52s-4.2-5-5.07-8.66c-.87-3.65-1.39-7.37-1.56-11.17v-2.73-2.47c-2.95 4.94-6.15 9.77-9.62 14.49-3.47 4.72-7.15 8.73-11.05 12.02-3.9 3.27-8.02 5.1-12.35 5.48z"/><path d="M695.66 515.09c-9.88.86-17.38-1.56-22.49-7.26-5.11-5.71-7.67-13.93-7.67-24.68 0-8.49 1.47-18.68 4.42-30.55 2.94-11.87 6.84-24.39 11.7-37.55a491.185 491.185 0 0116.25-38.86c5.98-12.74 12.09-24.37 18.33-34.88 6.24-10.51 12.13-18.96 17.68-25.34 5.54-6.38 10.31-9.74 14.3-10.09 3.46-.3 6.06 1.46 7.8 5.3 1.73 3.84 2.69 7.74 2.86 11.71 0 4.85-1.04 10.84-3.12 17.95-2.08 7.12-5.03 14.74-8.84 22.87-3.82 8.13-8.24 16.24-13.26 24.3-5.03 8.07-10.53 15.48-16.51 22.24-5.98 6.76-12.18 12.25-18.59 16.45-1.21 2.36-2.73 6.39-4.55 12.1-1.82 5.71-3.47 12.18-4.94 19.41-1.47 7.24-2.21 14.41-2.21 21.51 0 6.93 1 12.78 2.99 17.55 1.99 4.76 5.5 6.93 10.53 6.49 4.5-.39 9.36-2.9 14.56-7.51a57.74 57.74 0 0012.74-16.2c-6.42-2.9-11.27-7.33-14.56-13.29-3.29-5.95-4.94-12.39-4.94-19.33 0-8.49 2.3-15.54 6.89-21.14 4.59-5.6 10.18-8.69 16.77-9.27 5.54-.49 10.14 1.24 13.78 5.16 3.64 3.93 5.46 10.31 5.46 19.15 0 5.03-.65 10.42-1.95 16.16-1.3 5.75-3.25 11.51-5.85 17.28.87-.08 1.6-.09 2.21-.06.61.04 1.43 0 2.47-.09 6.06-.53 11.26-2.63 15.6-6.3 4.33-3.67 7.97-7.89 10.92-12.66 2.94-4.76 5.29-9.04 7.02-12.83l3.9 5.12c-4.33 10.61-9.67 18.88-15.99 24.8-6.33 5.93-14.6 9.34-24.83 10.23-.87.08-1.78.16-2.73.24-.95.08-1.86.08-2.73-.02-4.85 8.22-10.88 15.38-18.07 21.47-7.2 6.1-15.65 9.57-25.35 10.42zm7.8-105.2c4.33-4.36 8.54-9.37 12.61-15.01a213.96 213.96 0 0011.44-17.64c3.55-6.12 6.67-12.11 9.36-17.98 2.68-5.87 4.9-11.17 6.63-15.92 1.73-4.74 2.77-8.52 3.12-11.32v-.91-.65c-1.56.66-4.12 3.4-7.67 8.21-3.55 4.82-7.54 11.02-11.96 18.6-4.42 7.58-8.71 15.93-12.87 25.05-4.16 9.11-7.72 18.3-10.66 27.57zm28.6 61.2c1.56-3.6 2.73-7.21 3.51-10.84.78-3.62 1.17-7.51 1.17-11.67 0-6.24-.74-10.77-2.21-13.59-1.47-2.82-3.25-4.13-5.33-3.95-2.25.2-4.21 1.93-5.85 5.19-1.65 3.26-2.47 7.07-2.47 11.4 0 3.64.78 7.82 2.34 12.54 1.56 4.71 4.5 8.35 8.84 10.92z"/><path d="M802 505.79c-9.88.86-17.38-1.56-22.49-7.26-5.11-5.71-7.67-13.93-7.67-24.68 0-8.49 1.47-18.67 4.42-30.55 2.94-11.87 6.84-24.39 11.7-37.55a489.618 489.618 0 0116.25-38.86c5.98-12.74 12.09-24.37 18.33-34.88 6.24-10.51 12.13-18.96 17.68-25.34 5.54-6.38 10.31-9.74 14.3-10.09 3.46-.3 6.06 1.46 7.8 5.3 1.73 3.84 2.69 7.74 2.86 11.71 0 4.85-1.04 10.84-3.12 17.95-2.08 7.12-5.03 14.74-8.84 22.87-3.82 8.13-8.24 16.24-13.26 24.3-5.03 8.07-10.53 15.48-16.51 22.24-5.98 6.76-12.18 12.25-18.59 16.45-1.21 2.36-2.73 6.39-4.55 12.1-1.82 5.71-3.47 12.18-4.94 19.41-1.47 7.24-2.21 14.41-2.21 21.51 0 6.93 1 12.78 2.99 17.55 1.99 4.77 5.5 6.93 10.53 6.49 4.5-.39 9.36-2.9 14.56-7.51a57.84 57.84 0 0012.74-16.19c-6.42-2.9-11.27-7.33-14.56-13.29-3.29-5.95-4.94-12.39-4.94-19.33 0-8.49 2.3-15.54 6.89-21.14 4.59-5.6 10.18-8.69 16.77-9.27 5.54-.49 10.14 1.24 13.78 5.17 3.64 3.93 5.46 10.31 5.46 19.15 0 5.03-.65 10.42-1.95 16.16-1.3 5.75-3.25 11.51-5.85 17.28.87-.08 1.6-.09 2.21-.06.61.04 1.43 0 2.47-.09 6.06-.53 11.26-2.63 15.6-6.3 4.33-3.67 7.97-7.89 10.92-12.66 2.94-4.76 5.29-9.04 7.02-12.83l3.9 5.12c-4.33 10.61-9.67 18.88-15.99 24.8-6.33 5.93-14.6 9.34-24.83 10.23-.87.08-1.78.16-2.73.24-.96.08-1.87.08-2.73-.02-4.85 8.22-10.88 15.38-18.07 21.47-7.2 6.08-15.65 9.55-25.35 10.4zm7.8-105.2c4.33-4.36 8.53-9.37 12.61-15.01a213.96 213.96 0 0011.44-17.64c3.55-6.12 6.67-12.11 9.36-17.98 2.68-5.87 4.9-11.17 6.63-15.92 1.73-4.74 2.77-8.52 3.12-11.32v-.91-.65c-1.56.66-4.12 3.4-7.67 8.21-3.55 4.82-7.54 11.02-11.96 18.6-4.42 7.58-8.71 15.93-12.87 25.05-4.16 9.1-7.72 18.3-10.66 27.57zm28.6 61.2c1.56-3.6 2.73-7.21 3.51-10.84.78-3.62 1.17-7.51 1.17-11.67 0-6.24-.74-10.77-2.21-13.59-1.47-2.82-3.25-4.14-5.33-3.95-2.25.2-4.21 1.93-5.85 5.19-1.65 3.26-2.47 7.07-2.47 11.4 0 3.64.78 7.82 2.34 12.54 1.56 4.71 4.5 8.35 8.84 10.92z"/><path d="M903.4 485.74c-8.15.71-13.82-1.52-17.03-6.7-3.21-5.18-4.81-11.5-4.81-18.95 0-8.49 1.56-18.6 4.68-30.31 3.12-11.71 7.23-24.07 12.35-37.09a523.568 523.568 0 0116.9-38.4c6.15-12.58 12.35-24 18.59-34.26 6.24-10.25 12-18.51 17.29-24.78 5.29-6.27 9.58-9.55 12.87-9.84 2.25-.2 4.16.81 5.72 3.01 1.56 2.2 2.82 4.87 3.77 7.99.95 3.13 1.43 6.07 1.43 8.84 0 4.68-1.17 10.89-3.51 18.64-2.34 7.74-5.63 16.31-9.88 25.69-4.25 9.39-9.27 19.06-15.08 29.01a267.027 267.027 0 01-19.24 28.59c-7.02 9.11-14.52 17.13-22.49 24.07-.69 4.4-1.34 8.74-1.95 13.04-.61 4.3-.91 8.18-.91 11.65 0 6.24 1.04 10.7 3.12 13.38s4.77 3.87 8.06 3.58c4.33-.38 8.79-2.8 13.39-7.28 4.59-4.47 9.01-10.06 13.26-16.76 4.25-6.7 7.93-13.56 11.05-20.6l6.24 2.83c-7.45 16.08-15.77 28.98-24.96 38.71-9.19 9.75-18.81 15.06-28.86 15.94zm6.24-71.01c5.89-6.93 11.48-14.39 16.77-22.4 5.29-8 10.14-16.1 14.56-24.28 4.42-8.19 8.28-16.07 11.57-23.63 3.29-7.57 5.85-14.33 7.67-20.3 1.82-5.96 2.82-10.69 2.99-14.17v-.39-.39c-1.39.12-3.6 2.27-6.63 6.43-3.03 4.17-6.63 9.81-10.79 16.93-4.16 7.12-8.45 15.21-12.87 24.27-4.42 9.06-8.67 18.57-12.74 28.54-4.08 9.98-7.59 19.78-10.53 29.39z"/><path d="M957.22 546.03c-4.33.38-8.36-.61-12.09-2.97-3.72-2.36-5.59-6.49-5.59-12.38 0-5.55 1.65-10.67 4.94-15.38 3.29-4.71 7.54-9.15 12.74-13.33s10.79-8.05 16.77-11.61c5.98-3.56 11.74-6.88 17.29-9.96 1.9-5.2 4.03-11.75 6.37-19.67 2.34-7.92 4.38-15.24 6.11-21.98-5.37 7.92-11.09 15.01-17.16 21.26-6.07 6.25-12.83 9.7-20.28 10.35-3.12.27-6.41-.09-9.88-1.09-3.47-1-6.37-2.99-8.71-6-2.34-3-3.51-7.19-3.51-12.56 0-4.5.82-10.04 2.47-16.6 1.65-6.55 3.73-13.02 6.24-19.4 2.51-6.37 5.16-11.72 7.93-16.03 2.77-4.31 5.2-6.56 7.28-6.75 1.04-.09 2.56.17 4.55.77 1.99.61 3.94 1.48 5.85 2.61 1.91 1.13 3.12 2.46 3.64 3.97-1.56 2.22-3.29 5.36-5.2 9.42-1.91 4.07-3.73 8.56-5.46 13.48s-3.17 9.68-4.29 14.29c-1.13 4.61-1.69 8.56-1.69 11.85 0 2.6.52 4.81 1.56 6.62 1.04 1.82 3.03 2.6 5.98 2.34 3.81-.33 7.76-2.24 11.83-5.72 4.07-3.48 8.06-7.81 11.96-13.01a168.6 168.6 0 0010.53-15.74c.34-1.24.69-3.18 1.04-5.81.34-2.63.95-5.37 1.82-8.22.87-3.02 2.38-5.84 4.55-8.46 2.17-2.61 5.24-4.1 9.23-4.45 1.38-.12 2.69-.15 3.9-.08 1.21.07 2.69.2 4.42.39 0 2.6-.91 7.75-2.73 15.45-1.82 7.7-4.21 16.62-7.15 26.76a534.603 534.603 0 01-9.88 30.5c7.28-3.58 14.86-9.14 22.75-16.68 7.88-7.54 14.26-17.84 19.11-30.92l4.42 3.25c-2.6 8.9-6.54 16.78-11.83 23.65-5.29 6.88-11.23 12.86-17.81 17.94-6.59 5.08-13.26 9.39-20.02 12.93-4.68 11.67-9.75 22.52-15.21 32.53-5.46 10.01-11.22 18.1-17.29 24.26-6.07 6.19-12.57 9.57-19.5 10.18zm-2.6-9.39c3.29-.29 7.88-4.16 13.78-11.6 5.89-7.45 11.87-18.37 17.94-32.77-5.55 3.26-11.14 7-16.77 11.22-5.63 4.22-10.36 8.58-14.17 13.07-3.82 4.49-5.72 8.91-5.72 13.24 0 1.73.39 3.35 1.17 4.84.78 1.48 2.03 2.15 3.77 2z"/></g><path d="M313.23 479.75c-7.24 0-13.61-1.44-19.09-4.33-5.49-2.89-9.73-6.7-12.73-11.46-3-4.75-4.5-10.01-4.5-15.78 0-5.09 1.07-10.07 3.23-14.94 2.15-4.86 5.15-9.33 9-13.41 3.85-4.07 8.43-7.49 13.75-10.27 5.32-2.77 11.09-4.61 17.31-5.52-3.96-3.62-6.99-7.64-9.08-12.05-2.1-4.41-3.14-8.88-3.14-13.41 0-6.11 1.53-11.88 4.58-17.31 3.05-5.43 7.38-9.84 12.98-13.24s12.08-5.09 19.43-5.09c6.79 0 11.97 1.61 15.53 4.84 3.56 3.22 5.35 7.89 5.35 14 0 4.3-.74 8.52-2.21 12.64-1.47 4.13-3.28 7.53-5.43 10.18-2.15 2.66-4.3 3.99-6.45 3.99-1.59 0-3.08-.71-4.5-2.12-1.42-1.41-2.63-3.03-3.65-4.84 4.19-3.39 7.66-6.96 10.44-10.69 2.77-3.73 4.16-7.58 4.16-11.54 0-3.17-.91-5.74-2.72-7.72-1.81-1.98-4.7-2.97-8.66-2.97-5.09 0-9.39 1.47-12.9 4.41-3.51 2.94-6.17 6.76-7.98 11.46-1.81 4.7-2.72 9.82-2.72 15.36 0 2.6.25 5.49.76 8.66s1.67 6.37 3.48 9.59c1.81 3.22 4.52 6.31 8.15 9.25-8.15 1.25-15.22 4.05-21.22 8.4-6 4.36-10.64 9.42-13.92 15.19-3.28 5.77-4.92 11.49-4.92 17.14 0 3.39.71 6.9 2.12 10.52 1.41 3.62 3.76 6.68 7.04 9.17 3.28 2.49 7.58 3.73 12.9 3.73 6.11 0 11.94-1.42 17.48-4.24 5.54-2.83 10.61-6.65 15.19-11.46a64.847 64.847 0 0011.29-16.21c2.94-6 4.81-12.16 5.6-18.5-2.15.11-4.22.28-6.19.51-1.98.23-4.24.57-6.79 1.02-2.55.45-5.91 1.08-10.1 1.87.11-5.77 2.04-9.62 5.77-11.54 3.73-1.92 8.2-2.89 13.41-2.89 3.62 0 6.93.23 9.93.68 3 .45 6 .93 9 1.44 3 .51 6.36.76 10.1.76-1.81 3.73-3.42 5.97-4.84 6.7-1.42.74-2.8 1.1-4.16 1.1-2.04 0-3.76.03-5.18.08-1.42.06-2.86.08-4.33.08-.79 7.7-2.97 15.05-6.53 22.06a73.494 73.494 0 01-13.66 18.84c-5.54 5.54-11.77 9.9-18.67 13.07-6.89 3.2-14.13 4.79-21.71 4.79z" fill="#e07b77"/><g fill="#e07b77"><path d="M218.84 341.5c-10.57.92-18.55-.11-23.92-3.11-5.38-3-8.15-8.48-8.32-16.43 0-1.73.95-2.68 2.86-2.85 1.56-.14 3.94.04 7.15.54 3.21.5 9.31.36 18.33-.43 15.25-1.33 29.29-4.16 42.12-8.49 12.83-4.33 23.96-9.64 33.41-15.92 9.45-6.29 16.77-13.08 21.97-20.38 5.2-7.3 7.8-14.68 7.8-22.13 0-6.76-2.04-12-6.11-15.72-4.07-3.71-9.45-6.36-16.12-7.95-6.67-1.58-13.95-2.37-21.84-2.38-7.89 0-15.65.33-23.27 1-3.29.29-6.59.62-9.88.99-3.29.38-6.42.69-9.36.95-3.81 13.51-7.54 27.44-11.18 41.8a1406 1406 0 01-11.44 42.34c-5.2.46-9.71-.54-13.52-2.98-3.81-2.44-5.72-5.65-5.72-9.64 0-1.56.3-3.62.91-6.19.61-2.56 1.52-5.63 2.73-9.21 1.04-3.38 2.81-9 5.33-16.85 2.51-7.84 5.5-17.12 8.97-27.83 3.47-10.7 7.32-22 11.57-33.9 4.25-11.9 8.67-23.59 13.26-35.09 4.59-11.49 9.14-21.86 13.65-31.09-6.93 2.17-12.65 4.49-17.16 6.96-4.51 2.47-8.06 4.6-10.66 6.39-2.6 1.79-4.59 2.74-5.98 2.86-1.04.09-2.38-.4-4.03-1.47a22.212 22.212 0 01-4.42-3.77c-1.3-1.45-1.95-2.77-1.95-3.99a332.18 332.18 0 0129.12-12.69c10.05-3.82 22.19-6.36 36.4-7.6 6.24-.55 13.08-.67 20.54-.37 7.45.3 14.56 1.59 21.32 3.85 6.76 2.27 12.35 6.03 16.77 11.27 4.42 5.25 6.63 12.55 6.63 21.91 0 7.46-1.6 14.05-4.81 19.79-3.21 5.74-7.5 10.8-12.87 15.17-5.37 4.37-11.27 8.1-17.68 11.17-6.41 3.08-12.74 5.66-18.98 7.77 10.75.45 19.72 1.87 26.91 4.28 7.19 2.41 12.91 5.42 17.16 9.03 4.25 3.62 7.28 7.47 9.1 11.55 1.82 4.09 2.73 8.13 2.73 12.11 0 10.23-2.69 19.65-8.06 28.27-5.37 8.62-12.44 16.34-21.19 23.17-8.75 6.83-18.38 12.74-28.86 17.73-10.49 4.99-20.93 8.98-31.33 11.97-10.4 3-19.76 4.86-28.08 5.59zm17.42-122.43c9.71-1.19 19.24-3.15 28.6-5.88 9.36-2.72 17.81-6.28 25.35-10.67 7.54-4.38 13.56-9.77 18.07-16.14 4.51-6.37 6.76-13.98 6.76-22.82 0-8.32-2.25-14.53-6.76-18.65-4.51-4.11-10.4-6.72-17.68-7.81-7.28-1.09-15.08-1.28-23.4-.55-.17.02-.35.03-.52.05-.17.02-.35.03-.52.05-5.89 12.13-11.27 25.21-16.12 39.24a950.69 950.69 0 00-13.78 43.18zM359.5 318.79c-5.72.5-10.7-.97-14.95-4.41-4.25-3.44-6.37-8.97-6.37-16.6 0-6.07 1.39-12.77 4.16-20.12 2.77-7.35 6.59-14.7 11.44-22.06 4.85-7.35 10.4-14.12 16.64-20.31 6.24-6.18 12.91-11.31 20.02-15.4 7.1-4.09 14.21-6.44 21.32-7.06 7.45-.65 13.78.7 18.98 4.06 5.2 3.36 7.8 8.16 7.8 14.4 0 4.68-1.65 8.2-4.94 10.57-3.29 2.37-7.19 3.32-11.7 2.84.35-1.59.65-3.18.91-4.76.26-1.58.39-3.24.39-4.97 0-3.46-.69-6.52-2.08-9.18-1.39-2.65-4.33-3.78-8.84-3.39-4.85.42-9.79 2.51-14.82 6.24-5.03 3.74-9.84 8.45-14.43 14.13-4.59 5.69-8.71 11.86-12.35 18.5-3.64 6.65-6.5 13.09-8.58 19.34s-3.12 11.8-3.12 16.65c0 5.55 1.99 8.15 5.98 7.8 3.99-.35 8.4-2.69 13.26-7.01 4.85-4.32 9.75-9.65 14.69-15.98a396.2 396.2 0 0014.17-19.31c4.5-6.54 8.41-12.13 11.7-16.75.52-.91 1.21-1.41 2.08-1.48.69.11 2.04.39 4.03.82 1.99.44 3.86 1.18 5.59 2.24 1.73 1.06 2.6 2.55 2.6 4.45 0 1.73-.74 4.01-2.21 6.82-1.47 2.82-3.21 5.92-5.2 9.29-1.99 3.38-3.73 6.74-5.2 10.08-1.47 3.34-2.21 6.48-2.21 9.42 0 2.25.6 4.33 1.82 6.21 1.21 1.89 3.21 2.71 5.98 2.47 4.16-.36 10.01-3.95 17.55-10.77 7.54-6.81 15.21-17.93 23.01-33.34l4.94 4.51c-4.16 9.72-9.14 18.44-14.95 26.14-5.81 7.7-11.92 13.87-18.33 18.5-6.41 4.63-12.91 7.24-19.5 7.82-7.11.62-12.39-1.17-15.86-5.37-3.47-4.2-5.38-8.89-5.72-14.06v-.78-.52c-6.93 8.93-13.3 16.07-19.11 21.43-5.81 5.35-12 8.32-18.59 8.9z"/><path d="M485.08 307.54c-8.15.71-14.6-.98-19.37-5.07-4.77-4.09-7.15-10.64-7.15-19.65 0-5.03.69-11.07 2.08-18.12 1.38-7.05 3.25-14.63 5.59-22.72 2.34-8.09 4.9-16.07 7.67-23.94-1.56-.38-2.99-.73-4.29-1.06-1.3-.32-2.99-.82-5.07-1.51v-8.06c3.12.25 5.46.52 7.02.82 1.56.3 3.47.52 5.72.67 4.85-12.73 10.05-24.54 15.6-35.42 5.55-10.89 10.92-19.68 16.12-26.37 5.2-6.7 9.71-10.21 13.52-10.54 1.91-.17 3.64.38 5.2 1.63s2.34 2.74 2.34 4.47c0 2.08-1.04 5.55-3.12 10.41s-4.73 10.34-7.93 16.42c-3.21 6.09-6.42 12.13-9.62 18.13-3.21 6-6.07 11.19-8.58 15.57-2.51 4.38-4.03 7.2-4.55 8.46 4.51.3 8.67.5 12.48.6 3.81.1 7.63-.02 11.44-.35 5.03-.44 10.23-1.24 15.6-2.41 5.37-1.16 11.35-2.64 17.94-4.43 4.68-12.89 9.88-25.6 15.6-38.15 5.72-12.55 11.57-23.89 17.55-34.04 5.98-10.14 11.7-18.35 17.16-24.64 5.46-6.28 10.27-9.61 14.43-9.97 3.47-.3 6.15 1.41 8.06 5.14 1.91 3.73 2.86 7.85 2.86 12.36 0 5.72-1.48 12.78-4.42 21.19-2.95 8.41-7.02 17.17-12.22 26.29-5.2 9.12-11.31 17.8-18.33 26.04-7.02 8.24-14.6 15.06-22.75 20.45-2.25 5.4-4.29 12.03-6.11 19.9-1.82 7.87-3.25 15.49-4.29 22.86-1.04 7.37-1.56 13.23-1.56 17.56 4.16-11.28 8.84-21.74 14.04-31.39 5.2-9.64 11.05-17.52 17.55-23.64 6.5-6.11 13.56-9.51 21.19-10.17 7.97-.7 13.78 1.44 17.42 6.41 3.64 4.97 5.46 10.57 5.46 16.81 0 5.03-.91 10.18-2.73 15.45-1.82 5.27-3.64 10.29-5.46 15.04-1.82 4.75-2.73 8.95-2.73 12.59 0 3.12.74 5.22 2.21 6.31 1.47 1.09 3.07 1.55 4.81 1.4 3.81-.33 8.28-2.67 13.39-7.02 5.11-4.35 10.14-9.94 15.08-16.79 4.94-6.84 9.05-14.05 12.35-21.62l4.94 4.25c-3.81 9-8.41 17.38-13.78 25.13-5.37 7.75-11.31 14.03-17.81 18.85-6.5 4.81-13.39 7.54-20.67 8.18-6.59.58-11.66-.71-15.21-3.87-3.55-3.15-5.33-7.33-5.33-12.53 0-3.64.65-7.64 1.95-12 1.3-4.36 2.56-8.84 3.77-13.46 1.21-4.61 1.82-8.82 1.82-12.64 0-3.99-.83-6.77-2.47-8.36-1.65-1.59-3.86-2.26-6.63-2.02-4.16.36-7.93 2.38-11.31 6.06-3.38 3.68-6.46 8.32-9.23 13.94-2.77 5.62-5.37 11.52-7.8 17.71-2.43 6.19-4.81 12.08-7.15 17.66-2.34 5.58-4.77 10.17-7.28 13.77-2.52 3.6-5.24 5.53-8.19 5.79-2.6.23-4.72-.89-6.37-3.34-1.65-2.46-2.99-5.46-4.03-9.01a57.996 57.996 0 01-2.08-10.61c-.35-3.52-.52-6.23-.52-8.14-6.93 10.66-15.04 19.56-24.31 26.7-9.28 7.11-19.11 11.13-29.51 12.04zm7.54-13.66c8.67-.76 17.38-5.29 26.13-13.6 8.75-8.31 16.34-19.32 22.75-33.06 1.04-5.29 2.17-10.33 3.38-15.12 1.21-4.79 2.77-10.03 4.68-15.75-5.2 1.5-10.23 2.72-15.08 3.66-4.85.95-9.62 1.62-14.3 2.03-4.68.41-9.36.56-14.04.45-4.68-.11-9.45-.38-14.3-.83-3.81 8.83-6.93 17.68-9.36 26.56-2.43 8.88-3.64 17.83-3.64 26.84 0 7.11 1 12.13 2.99 15.08 1.99 2.95 5.59 4.2 10.79 3.74zm84.24-100.97c5.03-4.77 9.71-10.03 14.04-15.79 4.33-5.75 8.19-11.59 11.57-17.52 3.38-5.93 6.24-11.55 8.58-16.87s3.94-9.92 4.81-13.81c.52-2.47.78-4.4.78-5.79-1.39.47-3.6 2.57-6.63 6.3s-6.54 8.76-10.53 15.09c-3.99 6.33-7.97 13.61-11.96 21.85-3.99 8.24-7.54 17.09-10.66 26.54z"/><path d="M689.69 289.64c-7.63.67-13.78-1.05-18.46-5.14-4.68-4.1-7.02-10.74-7.02-19.93 0-7.11 1.34-16.06 4.03-26.87 2.69-10.81 6.11-22.02 10.27-33.66-1.21-.24-2.64-.42-4.29-.53-1.65-.12-3.25-.45-4.81-1.01v-8.06c2.77.11 5.07.17 6.89.18 1.82.02 3.68.03 5.59.03 3.64-9.5 7.58-18.73 11.83-27.69 4.25-8.95 8.49-16.99 12.74-24.12 4.25-7.13 8.28-12.81 12.09-17.05 3.81-4.23 7.19-6.48 10.14-6.74 1.73-.15 3.38.35 4.94 1.52 1.56 1.16 2.34 2.96 2.34 5.39 0 3.47-1.78 8.56-5.33 15.29-3.55 6.73-7.93 14.6-13.13 23.64-5.2 9.03-10.23 18.62-15.08 28.75l4.16-.36c1.39-.12 2.69-.23 3.9-.34 7.62-.67 14.51-1.4 20.67-2.2 6.15-.8 12.43-1.82 18.85-3.08v8.58c-9.53 1.7-18.29 3.16-26.26 4.38-7.97 1.22-15.6 2.23-22.88 3.04-.52.05-1.04.09-1.56.14-.52.05-1.04.09-1.56.14-3.64 8.81-6.8 17.8-9.49 26.96-2.69 9.16-4.03 17.99-4.03 26.48 0 7.11 1.12 12.04 3.38 14.78 2.25 2.75 5.81 3.91 10.66 3.49 8.67-.76 17.55-5.48 26.65-14.16 9.1-8.68 17.03-20.08 23.79-34.19l3.64 2.28c-4.51 10.62-10.1 20.38-16.77 29.29-6.67 8.9-13.91 16.08-21.71 21.53-7.8 5.42-15.86 8.51-24.18 9.24z"/><path d="M760.67 279.27c-5.9.52-10.71-1.79-14.43-6.93-3.73-5.13-5.59-11.25-5.59-18.36 0-4.85.78-10.64 2.34-17.37 1.56-6.72 3.6-13.31 6.11-19.77 2.51-6.46 5.11-11.89 7.8-16.28 2.69-4.4 5.16-6.69 7.41-6.89 1.21-.11 3.08.38 5.59 1.46s4.72 2.49 6.63 4.23c-1.91 2.94-4.21 7.39-6.89 13.34-2.69 5.96-5.07 12.32-7.15 19.09s-3.12 12.84-3.12 18.21c0 .69.13 2.33.39 4.91s.91 4.95 1.95 7.11 2.86 3.13 5.46 2.9c2.95-.26 6.11-2.14 9.49-5.64 3.38-3.5 6.84-7.96 10.4-13.39 3.55-5.42 7.02-11.23 10.4-17.42 3.38-6.19 6.41-12.17 9.1-17.96 2.69-5.78 4.9-10.65 6.63-14.62 1.56.04 3.6.29 6.11.77 2.51.48 4.72 1.19 6.63 2.15 1.91.96 2.86 2.48 2.86 4.56 0 .52-.83 2.72-2.47 6.59-1.65 3.87-3.55 8.5-5.72 13.89-2.17 5.39-4.07 10.89-5.72 16.49-1.65 5.6-2.47 10.49-2.47 14.65 0 2.43.47 4.51 1.43 6.25.95 1.74 2.81 2.48 5.59 2.24 3.64-.32 7.97-2.34 13-6.08 5.03-3.73 10.23-8.96 15.6-15.66 5.37-6.71 10.14-14.58 14.3-23.61l3.9 2.78c-3.81 9.69-8.75 18.54-14.82 26.52-6.07 7.99-12.57 14.4-19.5 19.26-6.93 4.85-13.69 7.57-20.28 8.14-5.03.44-8.8-.4-11.31-2.52-2.52-2.12-4.21-5-5.07-8.66-.87-3.65-1.39-7.37-1.56-11.17v-2.73-2.47c-2.95 4.94-6.15 9.77-9.62 14.49-3.47 4.72-7.15 8.73-11.05 12.02-3.9 3.27-8.02 5.1-12.35 5.48z"/><path d="M882.87 279.76c-9.88.86-17.38-1.56-22.49-7.26-5.11-5.71-7.67-13.93-7.67-24.68 0-8.49 1.47-18.67 4.42-30.55 2.95-11.87 6.85-24.39 11.7-37.55a491.185 491.185 0 0116.25-38.86c5.98-12.74 12.09-24.37 18.33-34.88 6.24-10.51 12.13-18.96 17.68-25.34 5.55-6.38 10.31-9.74 14.3-10.09 3.47-.3 6.07 1.46 7.8 5.3 1.73 3.84 2.68 7.74 2.86 11.71 0 4.85-1.04 10.84-3.12 17.95-2.08 7.12-5.03 14.74-8.84 22.87-3.82 8.13-8.23 16.23-13.26 24.3-5.03 8.07-10.53 15.48-16.51 22.24-5.98 6.76-12.18 12.25-18.59 16.45-1.22 2.36-2.73 6.39-4.55 12.1-1.82 5.71-3.47 12.18-4.94 19.41-1.48 7.24-2.21 14.41-2.21 21.51 0 6.93 1 12.78 2.99 17.55 1.99 4.77 5.5 6.93 10.53 6.49 4.51-.39 9.36-2.9 14.56-7.51a57.84 57.84 0 0012.74-16.19c-6.42-2.9-11.27-7.33-14.56-13.29-3.29-5.95-4.94-12.39-4.94-19.33 0-8.49 2.3-15.54 6.89-21.14 4.59-5.6 10.18-8.69 16.77-9.27 5.55-.49 10.14 1.24 13.78 5.16 3.64 3.93 5.46 10.31 5.46 19.15 0 5.03-.65 10.42-1.95 16.16-1.3 5.75-3.25 11.51-5.85 17.28.86-.08 1.6-.1 2.21-.06.61.04 1.43 0 2.47-.09 6.07-.53 11.26-2.63 15.6-6.3 4.33-3.67 7.97-7.89 10.92-12.66 2.94-4.76 5.29-9.04 7.02-12.83l3.9 5.12c-4.33 10.61-9.67 18.88-15.99 24.8-6.33 5.93-14.6 9.34-24.83 10.23-.87.08-1.78.16-2.73.24-.95.08-1.86.08-2.73-.02-4.85 8.22-10.88 15.38-18.07 21.47-7.19 6.09-15.65 9.56-25.35 10.41zm7.8-105.2c4.33-4.36 8.54-9.37 12.61-15.01a213.96 213.96 0 0011.44-17.64c3.55-6.12 6.67-12.11 9.36-17.98 2.68-5.87 4.89-11.17 6.63-15.92 1.73-4.74 2.77-8.52 3.12-11.32v-.91-.65c-1.56.66-4.12 3.4-7.67 8.21-3.55 4.82-7.54 11.02-11.96 18.6-4.42 7.58-8.71 15.93-12.87 25.05-4.16 9.1-7.72 18.3-10.66 27.57zm28.6 61.2c1.56-3.6 2.73-7.21 3.51-10.84.78-3.62 1.17-7.51 1.17-11.67 0-6.24-.74-10.77-2.21-13.59-1.48-2.82-3.25-4.14-5.33-3.95-2.25.2-4.21 1.93-5.85 5.19-1.65 3.26-2.47 7.07-2.47 11.4 0 3.64.78 7.82 2.34 12.54 1.56 4.71 4.5 8.35 8.84 10.92z"/><path d="M986.61 264.97c-8.67.76-15.64-.41-20.93-3.5-5.29-3.09-9.06-7.27-11.31-12.53a41.461 41.461 0 01-3.38-16.47c0-5.03.7-8.99 2.08-11.88 1.39-2.89 3.12-5.08 5.2-6.56 2.08-1.48 4.03-2.65 5.85-3.5 1.82-.85 3.16-1.75 4.03-2.69 4.33-4.88 8.8-10.52 13.39-16.9 4.59-6.38 8.53-13.36 11.83-20.92v-2.6c0-6.93 1.17-11.93 3.51-15 2.34-3.06 5.07-4.73 8.19-5.01 2.08-.18 3.6.21 4.55 1.16.95.96 1.52 2.12 1.69 3.49 0 1.04-.22 2.27-.65 3.7-.43 1.43-.65 3.35-.65 5.78 0 5.2 1.26 11.03 3.77 17.48 2.51 6.46 5.03 13.3 7.54 20.53s3.77 14.75 3.77 22.55c0 2.08-.09 4-.26 5.74-.17 1.75-.43 3.42-.78 5.01 5.37-1.86 10.66-5.31 15.86-10.36 5.2-5.04 10.14-12.28 14.82-21.71l3.12 2.07c-3.29 10.17-8.06 18.51-14.3 25.04-6.24 6.53-13.52 10.85-21.84 12.96-2.77 7.35-7.33 13.03-13.65 17.05-6.33 4.01-13.48 6.37-21.45 7.07zm-1.82-11.29c3.47-.3 6.67-1.45 9.62-3.44 2.95-1.99 5.29-4.71 7.02-8.15-7.11-.94-13.52-3.15-19.24-6.64-5.72-3.49-10.14-7.17-13.26-11.06-2.43.73-3.64 3.18-3.64 7.34 0 5.72 1.65 10.95 4.94 15.69 3.29 4.74 8.14 6.83 14.56 6.26zm18.72-19.57c.35-1.24.56-2.69.65-4.35.09-1.65.13-2.91.13-3.78-.18-7.79-1.21-15.4-3.12-22.87-1.91-7.46-3.81-15.09-5.72-22.9-3.12 5.65-6.76 11.77-10.92 18.38-4.16 6.6-8.06 11.97-11.7 16.1 2.77 4.44 6.85 8.5 12.22 12.19 5.37 3.69 11.52 6.1 18.46 7.23z"/></g><circle cx="145.88" cy="446.4" r="79.04" fill="#fff3f3"/><circle cx="59.93" cy="467.68" r="47.4" fill="#fff3f3"/><circle cx="36.58" cy="369.18" r="33.58" fill="#fff3f3"/><circle cx="240.13" cy="516.82" r="19.73" fill="#fff3f3"/><path d="M97.48 411.53c12.16-17.63 32.96-27.44 54.29-25.6 5.15.45 10.2 1.54 15.03 3.27 1.88.66 2.87 2.75 2.18 4.61a3.6 3.6 0 01-4.61 2.18 52.903 52.903 0 00-13.22-2.88c-18.75-1.62-37.03 7-47.72 22.5a3.617 3.617 0 01-5.03.93 3.605 3.605 0 01-1.55-3.29c.05-.59.26-1.19.63-1.72zm8.04 106.25a82.11 82.11 0 01-13.58-9.53c-16.1 12.69-38.36 14.64-56.56 4.44-24.72-13.86-33.55-45.24-19.69-69.96 10.65-18.99 32.27-29.02 53.45-25.4 1.42-3.71 3.02-7.39 5.02-10.97C96.24 367 146.22 352.93 185.59 375s53.44 72.06 31.37 111.43-72.06 53.43-111.44 31.35zm-83.51-71.51c-11.91 21.24-4.32 48.21 16.92 60.12a43.79 43.79 0 0047.76-3.18c-20.04-20.78-27.7-50.96-19.84-78.94-17.85-2.58-35.87 6-44.84 22zm160.05-64.96c-35.89-20.12-81.46-7.29-101.58 28.6-20.12 35.89-7.29 81.46 28.6 101.58 35.89 20.12 81.47 7.3 101.59-28.59 20.11-35.9 7.28-81.48-28.61-101.59zM251.49 497.24c-10.51-5.89-23.84-2.14-29.74 8.37-5.89 10.51-2.14 23.84 8.37 29.74 10.51 5.89 23.84 2.14 29.74-8.37 5.89-10.51 2.13-23.85-8.37-29.74zm-17.83 31.8c-7.03-3.94-9.55-12.87-5.6-19.9s12.87-9.55 19.9-5.6 9.55 12.87 5.6 19.9c-3.95 7.04-12.87 9.55-19.9 5.6zM54.77 337.45c-17.69-9.92-40.16-3.59-50.08 14.1-9.92 17.69-3.59 40.15 14.1 50.07 17.69 9.92 40.15 3.6 50.07-14.09 9.92-17.7 3.6-40.16-14.09-50.08zm-32.44 57.86C8.11 387.34 3.03 369.29 11 355.08c7.97-14.22 26.02-19.3 40.24-11.33 14.21 7.97 19.29 26.02 11.32 40.24-7.97 14.21-26.02 19.29-40.23 11.32z" fill="#ffccca"/><g><circle cx="776.02" cy="49.84" r="47" fill="#fff3f3"/><circle cx="812.39" cy="112.97" r="33.53" fill="#fff3f3"/><path d="M742.05 48.72a2.987 2.987 0 002.83 3.14c1.65.09 3.05-1.18 3.14-2.83.81-15.56 14.14-27.56 29.69-26.74 1.65.09 3.05-1.18 3.14-2.83a2.987 2.987 0 00-2.83-3.14c-18.85-.98-34.99 13.55-35.97 32.4zm84.63 4.43c-.46 8.87-3.29 17.19-8 24.47 17.32 3.04 30.09 18.62 29.15 36.62-1.02 19.46-17.68 34.46-37.14 33.45-19.46-1.02-34.46-17.68-33.44-37.14.18-3.37.85-6.59 1.9-9.63-1.86.11-3.72.13-5.55.03-27.81-1.45-49.25-25.26-47.8-53.08 1.45-27.81 25.26-49.25 53.07-47.8 27.82 1.45 49.27 25.26 47.81 53.08zm-15.67 88.57c16.17.85 30.01-11.62 30.86-27.79s-11.62-30.01-27.79-30.86c-.11-.01-.22.02-.32.01-.13.02-.25.01-.38.02-15.85-.45-29.31 11.82-30.14 27.76-.86 16.17 11.61 30.01 27.77 30.86zm-79.25-93.54c-1.28 24.52 17.62 45.52 42.14 46.8 2.69.14 5.43-.03 8.15-.41 6.06-10.33 17.16-17.23 29.74-17.49 5.33-6.99 8.45-15.32 8.92-24.26 1.28-24.52-17.63-45.51-42.15-46.79-24.52-1.27-45.52 17.63-46.8 42.15z" fill="#ffccca"/><g><circle cx="911.24" cy="31.57" r="24.34" fill="#fff3f3"/><path d="M933.64 15.6c-8.73-12.38-25.92-15.35-38.3-6.61-12.38 8.74-15.35 25.92-6.61 38.3s25.92 15.35 38.3 6.61c12.38-8.74 15.35-25.92 6.61-38.3zm-4.34 3.06c7.05 9.99 4.66 23.86-5.33 30.91-9.99 7.05-23.86 4.66-30.91-5.33s-4.66-23.86 5.34-30.91 23.85-4.66 30.9 5.33z" fill="#ffccca"/></g></g><g><path d="M1072.29 362.16c12.59-9.63 25.19-19.25 37.78-28.9 25.41-19.47 50.81-38.96 76.22-58.44.75-.58 1.46-1.22 2.25-1.74 4.58-2.98 7.23-7.04 3.3-11.77-4.09-4.93-8.49-2.13-12.28 1.3-10.73 9.71-21.44 19.43-32.17 29.14-23.9 21.64-47.82 43.26-71.71 64.91-1.53 1.39-2.93 2.92-4.39 4.38.33.38.66.75 1 1.12zm3.04-24c30.06-31.47 53.57-66.33 57.88-111.02.2-2.11.94-4.73.02-6.26-1.49-2.46-4.15-5.8-6.33-5.81-2.36-.01-4.87 3.24-7.01 5.36-.63.63-.34 2.28-.31 3.46 1.12 37.02-14.17 68.5-33.31 98.66-3.39 5.36-7.28 10.41-10.94 15.61zm9.73 40.41c21.73-2.42 44.17-6.38 66.7-6.94 16.56-.41 33.25 3.43 49.82 5.83 4.86.7 8.9.61 10.25-4.57 1.45-5.61-2.18-8.38-7.24-9.23-41.71-6.98-81.42 1.23-119.53 14.91zm31.98-29.49c17.51-5.62 34.71-12.67 52.6-16.44 16.54-3.49 33.84-3.27 50.76-5.18 3.22-.36 7.59-2.28 8.96-4.82 2.61-4.81-2.21-9.22-9.06-8.59-24.22 2.22-47.81 7.26-70 17.46-11.38 5.23-22.3 11.45-33.43 17.22.06.12.12.23.17.35zm-66.03-.51c20.45-26.2 29.6-56.65 33.27-89.08.53-4.65-.46-9.7-6.48-9.86-6.31-.17-7.45 4.67-7.37 9.85.35 22.14-1.63 43.97-9.38 64.9-3.03 8.19-6.67 16.14-10.04 24.19zm78.53 46.31c.94 5.84 2.05 12.75 3.07 19.16 5.55-1.24 12.47-2.79 18.61-4.17-.89-6.03-1.93-13.13-2.8-19.1-6.05 1.32-12.9 2.81-18.88 4.11zm44.04-180.72c-4.37 1.14-9 2.35-13.87 3.63 1.05 4.17 2.26 8.98 3.47 13.8 4.3-1.1 9.09-2.32 13.8-3.52-1.07-4.39-2.25-9.21-3.4-13.91zm-51.43-7.28c4.96-2.61 9.2-3.47 10.14-5.71.98-2.33-.27-7.12-2.26-8.82-3.28-2.81-7.83-1.35-9.28 2.7-.96 2.65.61 6.2 1.4 11.83zm110.96 66.46c-5.03 2.32-8.77 2.93-10.57 5.13-2.81 3.45-1.55 7.97 2.62 9.22 2.59.77 7.38-.61 8.82-2.67 1.39-1.98-.29-6.09-.87-11.68zm-5.2 84.15c4.38-2.23 7.88-2.9 8.84-4.83.84-1.7-1.17-4.81-1.92-7.3-2.62.8-6.05.88-7.61 2.63-1.12 1.27.23 4.74.69 9.5zm-139.52-118.44c4.25-2.1 7.91-2.78 8.41-4.43.68-2.22-1.07-5.18-1.77-7.83-2.5.68-6.19.63-7.18 2.23-1.13 1.86.14 5.18.54 10.03zm172.07 53.35c2.78-1.42 5.3-1.89 5.87-3.21.59-1.38-.68-3.57-1.14-5.4-1.99.59-4.56.66-5.77 1.97-.78.84.46 3.53 1.04 6.64z" fill="#fceed1"/><path d="M1208.34 224.93c-3.29-5.89-.45-12.04 4.49-16.61 2.78-2.57 5.9-4.77 8.73-7.29 1.36-1.22 3.55-2.91 3.42-4.18-1.13-10.82 7.36-14.79 14.01-19.67 9.57-7.03 22.88-5.66 31.27 2.78 3.66 3.69 6.76 7.93 10.09 11.94 7.27 8.76 9.24 19.01 3.28 28.39-5.67 8.92-12.57 18.31-25.99 16.02-1.5-.26-3.51.95-4.93 1.97-3.26 2.35-6.22 5.13-9.46 7.52-5.51 4.07-11.35 4.28-18.57 1.97-5.51-7.57-11.79-14.72-16.34-22.84zm46.23-32.13c-2.4 1.06-5.36 6.9-4.46 8.37 4.22 6.88 9.29 13.4 15.03 19.05 1.28 1.26 7.45-.51 9.78-2.63 7.87-7.15 5.08-20.23-5.26-27.66-5.08.85-10.53.86-15.09 2.87zm-18.17 19.73c-5.46 3.57-11.87 6.24-10.25 13.4.86 3.8 4.29 8.31 7.77 9.94 6.59 3.09 10.57-2.89 15.69-7.13-4.72-5.8-8.87-10.89-13.21-16.21z" fill="#e5c0a8"/></g><g><circle cx="1103.25" cy="495.23" r="38.12" fill="#fff3f3"/><path d="M1106.4 454.05c-22.69-1.58-42.45 15.59-44.03 38.28-1.59 22.7 15.59 42.46 38.28 44.04 22.7 1.59 42.46-15.59 44.04-38.29 1.59-22.69-15.58-42.44-38.29-44.03zm-5.25 75.12c-18.72-1.31-32.89-17.6-31.58-36.33 1.31-18.72 17.6-32.89 36.32-31.58 18.73 1.31 32.89 17.6 31.59 36.32-1.31 18.73-17.6 32.89-36.33 31.59z" fill="#ffccca"/></g><g><circle cx="1137.2" cy="529.88" r="19.73" fill="#fff3f3"/><path d="M1139.11 507.32c-12.02-.84-22.47 8.25-23.31 20.27s8.25 22.47 20.27 23.31c12.02.84 22.47-8.25 23.31-20.27.84-12.02-8.25-22.47-20.27-23.31zm-2.54 36.37c-8.04-.56-14.13-7.56-13.56-15.6.56-8.04 7.56-14.13 15.6-13.56 8.04.56 14.13 7.56 13.56 15.6-.56 8.05-7.56 14.12-15.6 13.56z" fill="#ffccca"/></g></svg>